#!OML:ASF F:\VICON\USERDATA\INSTALL\rory3\rory3.ASF
:FULLY-SPECIFIED
:DEGREES
817
root 3.44626 16.5338 0.477747 10.4698 5.99691 5.94291
lowerback -5.68002 2.80936 0.239275
upperback 0.697325 3.87095 -3.32997
thorax 4.15486 1.97273 -3.22223
lowerneck 1.58851 8.28615 5.26341
upperneck 57.4522 11.4897 6.55056
head 25.745 6.32037 5.12022
rclavicle 3.63776e-014 2.48481e-015
rhumerus -44.2129 0.938948 -88.9245
rradius 59.9647
rwrist -47.9107
rhand -7.46559 -48.294
rfingers 7.12502
rthumb 18.423 -77.4416
lclavicle 3.63776e-014 2.48481e-015
lhumerus -21.6265 -6.00721 86.2364
lradius 37.0331
lwrist 72.9492
lhand -41.0426 -14.0676
lfingers 7.12502
lthumb -13.9727 15.4429
rfemur -51.5828 15.8644 3.69613
rtibia 75.4067
rfoot 6.05839 14.9566
rtoes -33.6136
lfemur -28.9506 -8.01879 -32.8649
ltibia 44.9085
lfoot -21.9204 13.4866
ltoes 9.24565
818
root 3.4471 16.5674 0.47785 10.4759 6.04459 5.9257
lowerback -5.61127 2.48148 -0.0289513
upperback 0.805875 3.44059 -3.04652
thorax 4.16766 1.74866 -2.81958
lowerneck 1.28912 8.581 4.71909
upperneck 57.5458 12.0777 6.50023
head 25.8705 6.39195 5.32428
rclavicle -4.44035e-014 1.16289e-014
rhumerus -43.907 2.02004 -88.9263
rradius 59.9499
rwrist -48.0532
rhand -8.00123 -48.1425
rfingers 7.12502
rthumb 17.9077 -77.3381
lclavicle -4.44035e-014 1.16289e-014
lhumerus -21.4949 -4.92493 86.235
lradius 37.0378
lwrist 72.8634
lhand -40.7303 -14.2499
lfingers 7.12502
lthumb -13.6717 15.2811
rfemur -51.7721 15.9506 3.60833
rtibia 75.3304
rfoot 7.86988 14.209
rtoes -28.9373
lfemur -28.8292 -8.10213 -32.818
ltibia 44.7308
lfoot -21.8444 13.5292
ltoes 10.437
819
root 3.4386 16.5491 0.478906 10.4304 6.04588 5.77622
lowerback -5.39961 2.42357 0.00563679
upperback 0.753255 3.35112 -2.94418
thorax 3.98436 1.70266 -2.751
lowerneck 1.18255 8.65508 4.52576
upperneck 57.6286 12.1928 6.60782
head 25.9587 6.39092 5.46731
rclavicle -8.10048e-015 2.38542e-015
rhumerus -44.0317 2.28202 -88.9496
rradius 60.0221
rwrist -48.1661
rhand -7.75307 -47.7402
rfingers 7.12502
rthumb 18.1464 -76.9137
lclavicle -8.10048e-015 2.38542e-015
lhumerus -21.5021 -4.6395 86.2467
lradius 36.9153
lwrist 72.627
lhand -39.9293 -14.6594
lfingers 7.12502
lthumb -12.8996 14.9219
rfemur -51.5386 15.9363 3.91302
rtibia 75.3208
rfoot 6.46016 14.8413
rtoes -32.777
lfemur -28.9334 -8.10606 -32.6286
ltibia 44.9385
lfoot -21.827 13.5886
ltoes 8.95147
820
root 3.43525 16.568 0.486585 10.3511 5.98102 5.7422
lowerback -6.37924 2.94138 -3.4064
upperback -0.476557 4.23126 -2.03485
thorax 2.98762 2.07496 0.177671
lowerneck 4.51238 6.67155 8.39067
upperneck 57.7771 9.52157 4.49209
head 25.9524 6.21758 2.89331
rclavicle -3.06377e-014 5.96354e-016
rhumerus -47.8043 0.841694 -87.8621
rradius 60.6172
rwrist -48.2733
rhand -7.82244 -47.6455
rfingers 7.12502
rthumb 18.0797 -76.8252
lclavicle -3.06377e-014 5.96354e-016
lhumerus -24.6658 -6.18938 87.7323
lradius 37.0438
lwrist 72.3668
lhand -40.3362 -14.8969
lfingers 7.12502
lthumb -13.2918 14.6592
rfemur -51.696 16.1599 3.85147
rtibia 75.3419
rfoot 8.04176 14.0554
rtoes -28.2083
lfemur -28.7353 -8.03948 -32.5861
ltibia 44.8014
lfoot -21.7579 13.6348
ltoes 9.94169
821
root 3.42423 16.5339 0.486635 10.3813 5.86897 5.85862
lowerback -5.3747 2.50407 -0.228071
upperback 0.766745 3.476 -2.98927
thorax 3.97957 1.76013 -2.65612
lowerneck 1.24353 8.61274 4.44684
upperneck 57.5097 12.0309 6.76258
head 25.7217 6.34523 5.49857
rclavicle 1.64743e-014 -1.59028e-015
rhumerus -44.2183 2.18531 -88.9816
rradius 60.0101
rwrist -48.2006
rhand -7.57727 -47.4805
rfingers 7.12502
rthumb 18.3155 -76.6383
lclavicle 1.64743e-014 -1.59028e-015
lhumerus -21.5022 -4.56117 86.2266
lradius 36.8879
lwrist 72.4434
lhand -41.5966 -14.7916
lfingers 7.12502
lthumb -14.5065 14.6813
rfemur -51.6714 16.1536 3.80444
rtibia 75.451
rfoot 6.87867 14.5951
rtoes -31.5128
lfemur -28.947 -8.01397 -32.6913
ltibia 45.053
lfoot -21.8576 13.7027
ltoes 8.65975
822
root 3.42315 16.5538 0.485521 10.4602 5.80239 5.96726
lowerback -5.40712 2.39779 -0.501453
upperback 0.806117 3.35075 -2.91178
thorax 4.01198 1.69052 -2.43194
lowerneck 1.1829 8.71605 4.31344
upperneck 57.4591 12.2616 6.64042
head 25.6643 6.3914 5.4775
rclavicle 3.67752e-014 -2.14687e-014
rhumerus -44.0547 2.59408 -88.9612
rradius 59.9506
rwrist -48.1645
rhand -7.39302 -46.9396
rfingers 7.12502
rthumb 18.4928 -76.0806
lclavicle 3.67752e-014 -2.14687e-014
lhumerus -21.5744 -4.21498 86.2268
lradius 37.0832
lwrist 72.3712
lhand -42.5646 -14.0077
lfingers 7.12502
lthumb -15.439 15.3957
rfemur -52.0242 16.2304 3.54319
rtibia 75.5134
rfoot 8.23807 14.0386
rtoes -27.6946
lfemur -28.9322 -8.00433 -32.8056
ltibia 44.9178
lfoot -21.7541 13.8675
ltoes 9.27243
823
root 3.41513 16.5199 0.485913 10.456 5.83141 5.9501
lowerback -5.46129 2.04748 -0.813738
upperback 1.01196 2.89781 -2.59754
thorax 4.20448 1.45385 -1.96709
lowerneck 0.853127 9.03867 3.89877
upperneck 57.4932 13.0079 6.31557
head 25.8022 6.5234 5.52192
rclavicle -2.2413e-014 1.86858e-014
rhumerus -43.5442 3.78892 -88.924
rradius 59.8658
rwrist -48.1856
rhand -7.55707 -45.5116
rfingers 7.12502
rthumb 18.335 -74.6675
lclavicle -2.2413e-014 1.86858e-014
lhumerus -21.377 -3.10493 86.2319
lradius 37.1255
lwrist 72.1936
lhand -43.4946 -13.4007
lfingers 7.12502
lthumb -16.3346 15.9313
rfemur -51.8633 16.0879 3.71119
rtibia 75.5926
rfoot 6.7948 14.6849
rtoes -31.7584
lfemur -29.0115 -7.99358 -32.7886
ltibia 45.032
lfoot -21.6676 14.0021
ltoes 6.21318
824
root 3.41875 16.5646 0.489091 10.4527 5.90099 5.79334
lowerback -5.46276 2.05165 -0.646954
upperback 1.01221 2.89057 -2.56671
thorax 4.21196 1.45394 -2.02916
lowerneck 0.850272 9.01426 3.92702
upperneck 57.5261 12.9645 6.32612
head 25.8558 6.5099 5.52656
rclavicle 2.84511e-014 -3.33958e-014
rhumerus -43.5919 3.70961 -88.8677
rradius 59.9846
rwrist -48.0677
rhand -7.88855 -43.5125
rfingers 7.12502
rthumb 18.0161 -72.698
lclavicle 2.84511e-014 -3.33958e-014
lhumerus -21.206 -3.131 86.2663
lradius 36.878
lwrist 72.0048
lhand -43.7046 -13.4139
lfingers 7.12502
lthumb -16.5368 15.9014
rfemur -52.0805 16.1285 3.77921
rtibia 75.5265
rfoot 8.30363 14.2363
rtoes -27.6955
lfemur -28.8699 -8.06183 -32.5782
ltibia 44.8118
lfoot -21.6992 13.8513
ltoes 9.42127
